<svg version="1.0" xmlns="http://www.w3.org/2000/svg" width="512pt" height="512pt" viewBox="0 0 512 320" preserveAspectRatio="xMidYMid meet">
  <g transform="translate(0,320) scale(0.1,-0.1)" fill="currentColor" stroke="none">
    <path d="M2108 3835 c-16 -17 6 -25 70 -25 278 -1 731 -82 1007 -182 128 -46 300 -130 387 -189 95 -65 189 -164 231 -245 214 -414 -238 -855 -1108 -1077 -407 -105 -831 -159 -1395 -178 -173 -6 -317 -12 -319 -14 -40 -39 747 -33 1279 11 1229 100 1980 377 2181 807 104 223 66 449 -102 619 -82 82 -144 125 -266 187 -260 131 -697 229 -1208 271 -165 14 -748 25 -757 15z" />
    <path d="M427 3618 c-164 -235 -265 -394 -365 -574 -34 -61 -62 -121 -62 -134 0 -40 77 -103 170 -139 219 -83 483 -122 967 -142 833 -34 1597 85 1690 264 75 146 -233 270 -822 333 -233 25 -838 26 -995 2 -57 -9 -106 -15 -107 -14 -3 3 138 204 245 348 40 54 72 102 72 108 0 7 -129 10 -374 10 l-375 0 -44 -62z m1421 -603 c135 -18 246 -53 250 -77 2 -12 -12 -22 -50 -36 -260 -97 -1189 -81 -1297 23 -12 12 -9 17 20 34 44 27 138 47 274 61 61 5 126 12 145 14 81 10 551 -4 658 -19z" />
  </g>
</svg>