 <svg version="1.0" xmlns="http://www.w3.org/2000/svg"  width="900.000000pt" height="369.000000pt" viewBox="0 0 900.000000 369.000000"  preserveAspectRatio="xMidYMid meet">  <g transform="translate(0.000000,369.000000) scale(0.100000,-0.100000)" fill="#000000" stroke="none"> <path d="M570 3676 c0 -7 -7 -38 -16 -67 -24 -84 -42 -150 -53 -194 -13 -55 -37 -136 -45 -157 -7 -16 38 -17 686 -21 509 -3 705 -7 738 -16 25 -7 66 -19 91 -27 26 -8 52 -14 58 -14 17 0 140 -60 185 -91 43 -28 100 -87 127 -129 21 -32 49 -129 49 -168 0 -34 -26 -154 -39 -180 -47 -93 -64 -120 -102 -166 -24 -29 -72 -74 -106 -101 -69 -52 -246 -144 -278 -145 -12 0 -25 -4 -30 -9 -14 -14 -122 -40 -291 -70 -28 -5 -160 -13 -294 -17 -236 -7 -243 -6 -237 12 20 64 40 134 48 169 5 22 12 47 16 55 4 8 12 38 19 65 16 65 38 146 58 215 10 30 21 73 26 95 6 22 19 72 31 110 11 39 24 87 28 108 5 21 14 44 20 50 6 6 11 15 11 19 0 5 -199 7 -442 6 -373 -3 -443 -5 -440 -17 2 -8 -4 -35 -12 -60 -29 -90 -45 -148 -52 -189 -4 -23 -11 -45 -15 -48 -5 -3 -9 -15 -9 -27 0 -12 -6 -42 -14 -67 -24 -78 -45 -154 -52 -190 -3 -19 -10 -39 -14 -45 -4 -5 -11 -31 -14 -57 -4 -26 -11 -50 -17 -53 -5 -4 -9 -16 -9 -28 0 -12 -6 -42 -14 -67 -24 -78 -45 -154 -52 -190 -3 -19 -10 -39 -14 -45 -4 -5 -10 -23 -12 -40 -9 -54 -40 -160 -49 -169 -34 -37 -32 -37 749 -33 792 4 794 4 1062 51 105 19 276 60 315 76 11 4 52 18 90 30 39 11 79 25 90 30 11 5 45 19 75 31 78 30 243 113 328 164 29 18 107 70 112 75 3 3 34 29 70 57 156 123 277 283 334 444 23 64 33 194 24 296 -9 90 -25 145 -65 222 -30 58 -30 79 4 87 32 8 46 -8 81 -100 13 -34 27 -69 32 -78 6 -10 19 -45 31 -79 12 -34 28 -73 35 -88 8 -14 14 -33 14 -41 0 -9 4 -20 8 -25 4 -6 18 -37 31 -70 12 -33 27 -69 31 -80 10 -22 43 -106 67 -170 19 -49 26 -67 52 -127 12 -26 21 -54 21 -62 0 -8 4 -17 9 -20 5 -3 12 -18 15 -33 4 -16 13 -41 21 -58 32 -69 45 -104 45 -118 0 -9 4 -18 9 -21 5 -3 12 -18 15 -33 4 -16 13 -41 21 -58 29 -63 45 -103 45 -113 0 -6 6 -23 14 -39 8 -15 22 -48 32 -73 9 -25 23 -59 30 -77 8 -17 14 -36 14 -41 0 -6 6 -23 14 -39 8 -15 22 -48 31 -73 10 -25 21 -54 26 -65 4 -11 18 -45 30 -75 12 -30 28 -69 35 -87 8 -17 14 -35 14 -41 0 -5 6 -15 14 -21 11 -9 54 29 212 186 915 907 1818 1799 1830 1806 8 4 325 6 706 5 618 -3 701 -6 767 -21 41 -10 82 -22 92 -27 10 -6 26 -10 36 -10 10 0 59 -20 109 -45 107 -52 177 -117 220 -201 26 -52 29 -67 29 -158 0 -100 0 -102 -48 -197 -45 -91 -102 -163 -177 -224 -65 -53 -262 -155 -298 -155 -10 0 -22 -4 -28 -9 -10 -11 -64 -26 -169 -47 -133 -27 -191 -33 -422 -40 l-233 -7 16 49 c9 27 19 65 23 84 4 19 13 51 19 70 6 19 18 62 27 95 9 33 22 83 30 110 8 28 21 76 30 107 32 118 46 169 61 225 9 32 24 84 34 116 l18 57 -438 0 -437 0 -7 -38 c-3 -22 -12 -61 -20 -88 -14 -46 -22 -73 -61 -219 -9 -30 -22 -80 -30 -110 -9 -30 -23 -81 -31 -112 -9 -32 -22 -80 -29 -108 -8 -27 -21 -77 -30 -110 -10 -33 -24 -85 -31 -115 -8 -30 -21 -77 -29 -105 -8 -27 -25 -88 -36 -135 -12 -47 -25 -92 -29 -100 -4 -8 -10 -32 -14 -52 l-7 -38 708 0 c646 1 722 2 868 21 190 23 303 41 365 58 25 7 61 16 80 21 57 14 182 51 223 66 38 14 107 41 142 54 56 22 249 119 315 159 159 95 305 222 402 350 57 75 122 207 132 266 14 82 18 95 32 95 23 0 19 105 -5 129 -10 10 -21 40 -25 68 -6 47 -27 97 -79 183 -56 95 -229 237 -377 310 -36 17 -78 38 -93 46 -16 8 -33 14 -39 14 -5 0 -24 6 -41 13 -52 23 -207 66 -307 86 -65 13 -187 27 -322 35 -104 7 -131 13 -122 27 3 5 -411 9 -1000 9 -734 0 -1006 -3 -1006 -11 0 -9 -99 -129 -130 -159 -3 -3 -30 -34 -60 -70 -30 -35 -59 -69 -65 -76 -12 -13 -65 -74 -265 -304 -84 -96 -178 -204 -210 -240 -31 -36 -70 -81 -86 -100 -16 -19 -33 -40 -39 -46 -10 -11 -61 -70 -186 -214 -110 -126 -124 -134 -135 -73 -4 20 -13 48 -20 62 -8 14 -14 34 -14 43 0 9 -4 19 -9 23 -5 3 -12 19 -16 36 -4 17 -13 42 -21 57 -8 15 -14 35 -14 44 0 9 -4 19 -9 23 -5 3 -13 20 -17 38 -6 30 -11 43 -48 129 -9 20 -16 45 -16 55 0 10 -4 23 -8 29 -5 5 -19 38 -32 74 -12 36 -29 79 -36 97 -8 17 -14 38 -14 46 0 9 -4 18 -9 22 -5 3 -12 19 -16 36 -4 17 -13 42 -21 57 -8 15 -14 34 -14 43 0 8 -4 19 -9 25 -5 5 -14 25 -19 44 -11 39 -30 94 -43 125 -5 11 -18 45 -29 75 -12 30 -26 67 -33 83 l-12 27 -1672 0 c-1419 0 -1673 -2 -1673 -14z"/> </g> </svg> 